<svg xmlns="http://www.w3.org/2000/svg" viewBox="0 0 1200 600" width="1200" height="600" preserveAspectRatio="xMidYMid slice">
<path d="M0.0 0.0 L12.0 1.9 L24.0 3.8 L36.0 5.5 L48.0 7.1 L60.0 8.5 L72.0 9.6 L84.0 10.5 L96.0 11.0 L108.0 11.4 L120.0 11.4 L132.0 11.2 L144.0 10.8 L156.0 10.2 L168.0 9.5 L180.0 8.7 L192.0 7.9 L204.0 7.1 L216.0 6.3 L228.0 5.6 L240.0 5.1 L252.0 4.6 L264.0 4.3 L276.0 4.1 L288.0 4.0 L300.0 4.0 L312.0 4.0 L324.0 4.0 L336.0 4.0 L348.0 3.9 L360.0 3.7 L372.0 3.3 L384.0 2.8 L396.0 2.2 L408.0 1.3 L420.0 0.2 L432.0 -1.0 L444.0 -2.4 L456.0 -3.9 L468.0 -5.4 L480.0 -7.0 L492.0 -8.5 L504.0 -10.0 L516.0 -11.2 L528.0 -12.3 L540.0 -13.1 L552.0 -13.7 L564.0 -14.0 L576.0 -13.9 L588.0 -13.6 L600.0 -12.9 L612.0 -11.9 L624.0 -10.8 L636.0 -9.4 L648.0 -7.9 L660.0 -6.2 L672.0 -4.6 L684.0 -2.9 L696.0 -1.4 L708.0 0.1 L720.0 1.4 L732.0 2.5 L744.0 3.4 L756.0 4.1 L768.0 4.7 L780.0 5.0 L792.0 5.2 L804.0 5.2 L816.0 5.2 L828.0 5.1 L840.0 5.0 L852.0 4.9 L864.0 4.9 L876.0 5.0 L888.0 5.2 L900.0 5.5 L912.0 5.9 L924.0 6.5 L936.0 7.1 L948.0 7.8 L960.0 8.4 L972.0 9.1 L984.0 9.7 L996.0 10.2 L1008.0 10.5 L1020.0 10.6 L1032.0 10.5 L1044.0 10.1 L1056.0 9.5 L1068.0 8.5 L1080.0 7.4 L1092.0 6.0 L1104.0 4.4 L1116.0 2.6 L1128.0 0.8 L1140.0 -1.2 L1152.0 -3.1 L1164.0 -4.9 L1176.0 -6.6 L1188.0 -8.2 L1200.0 -9.5" fill="none" stroke="#82DCE3" stroke-width="1.8" stroke-opacity="0.3" stroke-linecap="round"></path>
<path d="M0.0 71.7 L12.0 73.2 L24.0 73.7 L36.0 73.2 L48.0 71.8 L60.0 69.6 L72.0 66.9 L84.0 63.8 L96.0 60.5 L108.0 57.3 L120.0 54.3 L132.0 51.6 L144.0 49.4 L156.0 47.6 L168.0 46.4 L180.0 45.5 L192.0 45.1 L204.0 44.8 L216.0 44.6 L228.0 44.3 L240.0 43.8 L252.0 42.8 L264.0 41.4 L276.0 39.3 L288.0 36.7 L300.0 33.5 L312.0 29.8 L324.0 25.8 L336.0 21.5 L348.0 17.3 L360.0 13.3 L372.0 9.7 L384.0 6.8 L396.0 4.6 L408.0 3.5 L420.0 3.4 L432.0 4.5 L444.0 6.6 L456.0 9.7 L468.0 13.7 L480.0 18.5 L492.0 23.7 L504.0 29.2 L516.0 34.7 L528.0 40.0 L540.0 44.9 L552.0 49.2 L564.0 52.8 L576.0 55.7 L588.0 57.7 L600.0 58.9 L612.0 59.4 L624.0 59.4 L636.0 58.9 L648.0 58.1 L660.0 57.3 L672.0 56.5 L684.0 56.0 L696.0 55.8 L708.0 56.0 L720.0 56.5 L732.0 57.5 L744.0 58.7 L756.0 60.1 L768.0 61.5 L780.0 62.7 L792.0 63.6 L804.0 64.0 L816.0 63.7 L828.0 62.6 L840.0 60.7 L852.0 57.9 L864.0 54.2 L876.0 49.7 L888.0 44.7 L900.0 39.1 L912.0 33.4 L924.0 27.6 L936.0 22.1 L948.0 17.0 L960.0 12.7 L972.0 9.2 L984.0 6.7 L996.0 5.3 L1008.0 4.9 L1020.0 5.6 L1032.0 7.2 L1044.0 9.6 L1056.0 12.6 L1068.0 16.1 L1080.0 19.7 L1092.0 23.4 L1104.0 26.8 L1116.0 30.0 L1128.0 32.6 L1140.0 34.8 L1152.0 36.4 L1164.0 37.6 L1176.0 38.3 L1188.0 38.7 L1200.0 39.0" fill="none" stroke="#82DCE3" stroke-width="1" stroke-opacity="0.16" stroke-linecap="round"></path>
<path d="M0.0 127.6 L12.0 120.0 L24.0 112.1 L36.0 104.4 L48.0 97.2 L60.0 91.1 L72.0 86.1 L84.0 82.3 L96.0 79.8 L108.0 78.3 L120.0 77.5 L132.0 77.0 L144.0 76.4 L156.0 75.2 L168.0 73.3 L180.0 70.2 L192.0 66.0 L204.0 60.6 L216.0 54.2 L228.0 47.2 L240.0 40.0 L252.0 33.1 L264.0 27.0 L276.0 22.2 L288.0 19.2 L300.0 18.5 L312.0 20.1 L324.0 24.1 L336.0 30.5 L348.0 38.9 L360.0 48.9 L372.0 60.1 L384.0 71.7 L396.0 83.1 L408.0 93.9 L420.0 103.3 L432.0 111.1 L444.0 117.0 L456.0 120.9 L468.0 122.8 L480.0 122.9 L492.0 121.6 L504.0 119.3 L516.0 116.5 L528.0 113.6 L540.0 110.9 L552.0 109.0 L564.0 107.9 L576.0 107.7 L588.0 108.3 L600.0 109.5 L612.0 111.1 L624.0 112.5 L636.0 113.4 L648.0 113.3 L660.0 111.8 L672.0 108.7 L684.0 103.8 L696.0 97.0 L708.0 88.6 L720.0 78.9 L732.0 68.3 L744.0 57.2 L756.0 46.5 L768.0 36.5 L780.0 28.0 L792.0 21.4 L804.0 17.1 L816.0 15.2 L828.0 15.8 L840.0 18.9 L852.0 24.0 L864.0 30.8 L876.0 38.7 L888.0 47.3 L900.0 55.9 L912.0 64.0 L924.0 71.3 L936.0 77.3 L948.0 82.0 L960.0 85.3 L972.0 87.5 L984.0 88.6 L996.0 89.2 L1008.0 89.6 L1020.0 90.1 L1032.0 91.3 L1044.0 93.4 L1056.0 96.5 L1068.0 100.7 L1080.0 106.0 L1092.0 112.0 L1104.0 118.3 L1116.0 124.6 L1128.0 130.4 L1140.0 135.0 L1152.0 138.0 L1164.0 139.0 L1176.0 137.7 L1188.0 134.1 L1200.0 128.2" fill="none" stroke="#82DCE3" stroke-width="1" stroke-opacity="0.16" stroke-linecap="round"></path>
<path d="M0.0 120.9 L12.0 117.0 L24.0 114.3 L36.0 112.6 L48.0 111.8 L60.0 111.5 L72.0 111.3 L84.0 111.0 L96.0 110.2 L108.0 108.7 L120.0 106.4 L132.0 103.3 L144.0 99.6 L156.0 95.5 L168.0 91.6 L180.0 88.2 L192.0 85.8 L204.0 84.7 L216.0 85.3 L228.0 87.7 L240.0 91.8 L252.0 97.6 L264.0 104.7 L276.0 112.6 L288.0 120.9 L300.0 128.9 L312.0 136.3 L324.0 142.5 L336.0 147.1 L348.0 150.1 L360.0 151.4 L372.0 151.2 L384.0 149.6 L396.0 147.2 L408.0 144.2 L420.0 141.2 L432.0 138.5 L444.0 136.3 L456.0 134.9 L468.0 134.2 L480.0 134.1 L492.0 134.4 L504.0 134.7 L516.0 134.7 L528.0 134.1 L540.0 132.4 L552.0 129.5 L564.0 125.4 L576.0 120.1 L588.0 113.8 L600.0 106.8 L612.0 99.8 L624.0 93.0 L636.0 87.2 L648.0 82.7 L660.0 79.8 L672.0 78.9 L684.0 80.0 L696.0 82.9 L708.0 87.4 L720.0 93.2 L732.0 99.8 L744.0 106.6 L756.0 113.1 L768.0 119.0 L780.0 123.9 L792.0 127.7 L804.0 130.2 L816.0 131.6 L828.0 132.2 L840.0 132.3 L852.0 132.1 L864.0 132.2 L876.0 132.7 L888.0 134.0 L900.0 136.0 L912.0 138.7 L924.0 142.0 L936.0 145.4 L948.0 148.7 L960.0 151.3 L972.0 152.9 L984.0 153.0 L996.0 151.6 L1008.0 148.4 L1020.0 143.4 L1032.0 137.1 L1044.0 129.5 L1056.0 121.4 L1068.0 113.1 L1080.0 105.2 L1092.0 98.3 L1104.0 92.8 L1116.0 88.8 L1128.0 86.6 L1140.0 86.2 L1152.0 87.3 L1164.0 89.6 L1176.0 92.8 L1188.0 96.4 L1200.0 100.0" fill="none" stroke="#82DCE3" stroke-width="1" stroke-opacity="0.16" stroke-linecap="round"></path>
<path d="M0.0 150.4 L12.0 150.5 L24.0 150.6 L36.0 150.8 L48.0 150.9 L60.0 150.8 L72.0 150.6 L84.0 150.2 L96.0 149.5 L108.0 148.6 L120.0 147.5 L132.0 146.3 L144.0 145.0 L156.0 143.7 L168.0 142.4 L180.0 141.3 L192.0 140.5 L204.0 139.9 L216.0 139.8 L228.0 140.1 L240.0 140.9 L252.0 142.2 L264.0 144.0 L276.0 146.3 L288.0 149.0 L300.0 152.1 L312.0 155.5 L324.0 159.1 L336.0 162.7 L348.0 166.3 L360.0 169.7 L372.0 172.9 L384.0 175.8 L396.0 178.2 L408.0 180.2 L420.0 181.6 L432.0 182.4 L444.0 182.8 L456.0 182.6 L468.0 182.0 L480.0 180.9 L492.0 179.6 L504.0 178.0 L516.0 176.2 L528.0 174.5 L540.0 172.7 L552.0 171.1 L564.0 169.6 L576.0 168.4 L588.0 167.3 L600.0 166.6 L612.0 166.1 L624.0 165.7 L636.0 165.6 L648.0 165.5 L660.0 165.4 L672.0 165.3 L684.0 165.1 L696.0 164.7 L708.0 164.0 L720.0 163.0 L732.0 161.7 L744.0 160.1 L756.0 158.1 L768.0 155.8 L780.0 153.3 L792.0 150.6 L804.0 147.9 L816.0 145.1 L828.0 142.4 L840.0 139.9 L852.0 137.8 L864.0 136.0 L876.0 134.7 L888.0 133.9 L900.0 133.7 L912.0 134.1 L924.0 135.1 L936.0 136.7 L948.0 138.7 L960.0 141.2 L972.0 144.0 L984.0 147.1 L996.0 150.3 L1008.0 153.6 L1020.0 156.8 L1032.0 159.8 L1044.0 162.6 L1056.0 165.1 L1068.0 167.2 L1080.0 168.9 L1092.0 170.2 L1104.0 171.1 L1116.0 171.7 L1128.0 171.9 L1140.0 171.8 L1152.0 171.6 L1164.0 171.3 L1176.0 171.0 L1188.0 170.7 L1200.0 170.5" fill="none" stroke="#82DCE3" stroke-width="1.8" stroke-opacity="0.3" stroke-linecap="round"></path>
<path d="M0.0 185.2 L12.0 185.0 L24.0 184.3 L36.0 183.4 L48.0 182.1 L60.0 180.8 L72.0 179.4 L84.0 178.2 L96.0 177.4 L108.0 177.1 L120.0 177.5 L132.0 178.6 L144.0 180.5 L156.0 183.2 L168.0 186.8 L180.0 191.1 L192.0 195.9 L204.0 201.2 L216.0 206.6 L228.0 212.0 L240.0 217.2 L252.0 221.9 L264.0 225.9 L276.0 229.1 L288.0 231.3 L300.0 232.6 L312.0 232.8 L324.0 232.1 L336.0 230.5 L348.0 228.2 L360.0 225.4 L372.0 222.1 L384.0 218.7 L396.0 215.4 L408.0 212.2 L420.0 209.3 L432.0 206.9 L444.0 205.0 L456.0 203.6 L468.0 202.6 L480.0 202.0 L492.0 201.6 L504.0 201.4 L516.0 201.1 L528.0 200.6 L540.0 199.9 L552.0 198.7 L564.0 196.9 L576.0 194.7 L588.0 192.0 L600.0 188.8 L612.0 185.3 L624.0 181.6 L636.0 177.9 L648.0 174.4 L660.0 171.4 L672.0 168.9 L684.0 167.1 L696.0 166.3 L708.0 166.5 L720.0 167.6 L732.0 169.8 L744.0 173.0 L756.0 176.9 L768.0 181.5 L780.0 186.6 L792.0 191.9 L804.0 197.3 L816.0 202.4 L828.0 207.1 L840.0 211.3 L852.0 214.7 L864.0 217.4 L876.0 219.3 L888.0 220.4 L900.0 220.7 L912.0 220.5 L924.0 219.9 L936.0 218.9 L948.0 217.8 L960.0 216.8 L972.0 215.9 L984.0 215.4 L996.0 215.1 L1008.0 215.3 L1020.0 215.8 L1032.0 216.5 L1044.0 217.5 L1056.0 218.5 L1068.0 219.4 L1080.0 220.0 L1092.0 220.2 L1104.0 219.8 L1116.0 218.7 L1128.0 216.9 L1140.0 214.2 L1152.0 210.8 L1164.0 206.6 L1176.0 202.0 L1188.0 196.9 L1200.0 191.5" fill="none" stroke="#82DCE3" stroke-width="1" stroke-opacity="0.16" stroke-linecap="round"></path>
<path d="M0.0 219.9 L12.0 219.0 L24.0 218.5 L36.0 218.7 L48.0 219.8 L60.0 222.0 L72.0 225.4 L84.0 229.9 L96.0 235.4 L108.0 241.7 L120.0 248.5 L132.0 255.4 L144.0 262.2 L156.0 268.3 L168.0 273.5 L180.0 277.4 L192.0 279.9 L204.0 280.8 L216.0 280.1 L228.0 277.9 L240.0 274.5 L252.0 270.1 L264.0 265.0 L276.0 259.7 L288.0 254.3 L300.0 249.4 L312.0 245.0 L324.0 241.4 L336.0 238.7 L348.0 236.8 L360.0 235.6 L372.0 235.0 L384.0 234.7 L396.0 234.4 L408.0 233.9 L420.0 233.1 L432.0 231.6 L444.0 229.4 L456.0 226.5 L468.0 223.1 L480.0 219.1 L492.0 215.0 L504.0 211.1 L516.0 207.5 L528.0 204.8 L540.0 203.1 L552.0 202.7 L564.0 203.7 L576.0 206.3 L588.0 210.3 L600.0 215.6 L612.0 222.0 L624.0 229.0 L636.0 236.4 L648.0 243.8 L660.0 250.7 L672.0 256.8 L684.0 261.9 L696.0 265.8 L708.0 268.3 L720.0 269.5 L732.0 269.5 L744.0 268.5 L756.0 266.8 L768.0 264.7 L780.0 262.3 L792.0 260.2 L804.0 258.3 L816.0 257.0 L828.0 256.3 L840.0 256.2 L852.0 256.5 L864.0 257.0 L876.0 257.6 L888.0 258.0 L900.0 257.9 L912.0 257.0 L924.0 255.2 L936.0 252.3 L948.0 248.3 L960.0 243.3 L972.0 237.5 L984.0 231.1 L996.0 224.4 L1008.0 217.8 L1020.0 211.7 L1032.0 206.5 L1044.0 202.4 L1056.0 199.8 L1068.0 198.6 L1080.0 199.1 L1092.0 201.2 L1104.0 204.5 L1116.0 209.0 L1128.0 214.3 L1140.0 220.1 L1152.0 225.9 L1164.0 231.4 L1176.0 236.4 L1188.0 240.7 L1200.0 244.0" fill="none" stroke="#82DCE3" stroke-width="1" stroke-opacity="0.16" stroke-linecap="round"></path>
<path d="M0.0 264.9 L12.0 270.3 L24.0 277.4 L36.0 286.0 L48.0 295.6 L60.0 305.6 L72.0 315.2 L84.0 323.8 L96.0 330.7 L108.0 335.4 L120.0 337.4 L132.0 336.7 L144.0 333.2 L156.0 327.4 L168.0 319.8 L180.0 310.9 L192.0 301.4 L204.0 292.2 L216.0 283.7 L228.0 276.6 L240.0 271.0 L252.0 267.1 L264.0 264.7 L276.0 263.7 L288.0 263.5 L300.0 263.6 L312.0 263.5 L324.0 262.9 L336.0 261.3 L348.0 258.7 L360.0 254.9 L372.0 250.4 L384.0 245.5 L396.0 240.8 L408.0 236.7 L420.0 234.1 L432.0 233.2 L444.0 234.7 L456.0 238.5 L468.0 244.8 L480.0 253.3 L492.0 263.5 L504.0 274.7 L516.0 286.3 L528.0 297.6 L540.0 307.6 L552.0 315.9 L564.0 322.1 L576.0 325.7 L588.0 327.0 L600.0 326.0 L612.0 323.2 L624.0 319.0 L636.0 314.2 L648.0 309.2 L660.0 304.7 L672.0 301.0 L684.0 298.4 L696.0 296.8 L708.0 296.2 L720.0 296.1 L732.0 296.2 L744.0 295.9 L756.0 294.8 L768.0 292.4 L780.0 288.4 L792.0 282.7 L804.0 275.4 L816.0 267.0 L828.0 257.7 L840.0 248.3 L852.0 239.5 L864.0 232.0 L876.0 226.4 L888.0 223.2 L900.0 222.7 L912.0 224.9 L924.0 229.8 L936.0 236.8 L948.0 245.6 L960.0 255.3 L972.0 265.3 L984.0 274.9 L996.0 283.4 L1008.0 290.4 L1020.0 295.7 L1032.0 299.2 L1044.0 301.1 L1056.0 301.6 L1068.0 301.4 L1080.0 300.8 L1092.0 300.4 L1104.0 300.6 L1116.0 301.7 L1128.0 303.9 L1140.0 307.0 L1152.0 310.8 L1164.0 314.9 L1176.0 318.8 L1188.0 321.7 L1200.0 323.3" fill="none" stroke="#82DCE3" stroke-width="1" stroke-opacity="0.16" stroke-linecap="round"></path>
<path d="M0.0 341.5 L12.0 346.3 L24.0 350.9 L36.0 355.0 L48.0 358.6 L60.0 361.5 L72.0 363.6 L84.0 364.8 L96.0 364.9 L108.0 364.1 L120.0 362.2 L132.0 359.4 L144.0 355.8 L156.0 351.5 L168.0 346.6 L180.0 341.3 L192.0 335.7 L204.0 330.2 L216.0 324.8 L228.0 319.7 L240.0 315.0 L252.0 310.9 L264.0 307.5 L276.0 304.7 L288.0 302.7 L300.0 301.2 L312.0 300.4 L324.0 300.1 L336.0 300.2 L348.0 300.6 L360.0 301.1 L372.0 301.7 L384.0 302.1 L396.0 302.3 L408.0 302.2 L420.0 301.8 L432.0 301.0 L444.0 299.8 L456.0 298.3 L468.0 296.6 L480.0 294.7 L492.0 292.8 L504.0 291.1 L516.0 289.6 L528.0 288.5 L540.0 288.0 L552.0 288.1 L564.0 289.0 L576.0 290.7 L588.0 293.3 L600.0 296.6 L612.0 300.8 L624.0 305.6 L636.0 311.1 L648.0 316.9 L660.0 323.0 L672.0 329.1 L684.0 335.2 L696.0 340.9 L708.0 346.1 L720.0 350.7 L732.0 354.6 L744.0 357.5 L756.0 359.5 L768.0 360.6 L780.0 360.7 L792.0 359.9 L804.0 358.4 L816.0 356.2 L828.0 353.4 L840.0 350.3 L852.0 346.9 L864.0 343.5 L876.0 340.1 L888.0 337.0 L900.0 334.2 L912.0 331.7 L924.0 329.8 L936.0 328.2 L948.0 327.1 L960.0 326.4 L972.0 326.0 L984.0 325.7 L996.0 325.5 L1008.0 325.2 L1020.0 324.8 L1032.0 324.0 L1044.0 322.8 L1056.0 321.2 L1068.0 319.0 L1080.0 316.3 L1092.0 313.1 L1104.0 309.4 L1116.0 305.3 L1128.0 301.0 L1140.0 296.5 L1152.0 292.1 L1164.0 287.9 L1176.0 284.1 L1188.0 280.9 L1200.0 278.3" fill="none" stroke="#82DCE3" stroke-width="1.8" stroke-opacity="0.3" stroke-linecap="round"></path>
<path d="M0.0 373.4 L12.0 373.3 L24.0 372.8 L36.0 371.9 L48.0 370.6 L60.0 369.0 L72.0 367.2 L84.0 365.2 L96.0 363.1 L108.0 360.9 L120.0 358.9 L132.0 357.1 L144.0 355.5 L156.0 354.1 L168.0 353.1 L180.0 352.4 L192.0 352.0 L204.0 351.9 L216.0 352.0 L228.0 352.3 L240.0 352.6 L252.0 353.0 L264.0 353.4 L276.0 353.7 L288.0 353.9 L300.0 354.0 L312.0 353.9 L324.0 353.7 L336.0 353.3 L348.0 352.9 L360.0 352.5 L372.0 352.1 L384.0 351.9 L396.0 351.8 L408.0 352.0 L420.0 352.5 L432.0 353.3 L444.0 354.4 L456.0 355.8 L468.0 357.4 L480.0 359.3 L492.0 361.4 L504.0 363.5 L516.0 365.6 L528.0 367.6 L540.0 369.4 L552.0 370.9 L564.0 372.1 L576.0 373.0 L588.0 373.4 L600.0 373.4 L612.0 373.0 L624.0 372.3 L636.0 371.2 L648.0 370.0 L660.0 368.6 L672.0 367.1 L684.0 365.6 L696.0 364.3 L708.0 363.0 L720.0 361.9 L732.0 361.1 L744.0 360.4 L756.0 359.9 L768.0 359.6 L780.0 359.5 L792.0 359.4 L804.0 359.3 L816.0 359.1 L828.0 358.9 L840.0 358.5 L852.0 357.9 L864.0 357.1 L876.0 356.1 L888.0 355.0 L900.0 353.7 L912.0 352.4 L924.0 351.1 L936.0 349.8 L948.0 348.7 L960.0 347.8 L972.0 347.2 L984.0 347.0 L996.0 347.1 L1008.0 347.7 L1020.0 348.6 L1032.0 349.9 L1044.0 351.6 L1056.0 353.5 L1068.0 355.5 L1080.0 357.7 L1092.0 359.8 L1104.0 361.9 L1116.0 363.8 L1128.0 365.5 L1140.0 366.9 L1152.0 367.9 L1164.0 368.7 L1176.0 369.1 L1188.0 369.2 L1200.0 369.0" fill="none" stroke="#82DCE3" stroke-width="1" stroke-opacity="0.16" stroke-linecap="round"></path>
<path d="M0.0 415.5 L12.0 409.0 L24.0 402.2 L36.0 395.5 L48.0 389.3 L60.0 383.9 L72.0 379.5 L84.0 376.2 L96.0 374.1 L108.0 373.2 L120.0 373.4 L132.0 374.4 L144.0 376.1 L156.0 378.0 L168.0 380.1 L180.0 382.0 L192.0 383.5 L204.0 384.5 L216.0 385.0 L228.0 385.0 L240.0 384.6 L252.0 384.0 L264.0 383.4 L276.0 383.1 L288.0 383.3 L300.0 384.3 L312.0 386.2 L324.0 389.0 L336.0 392.9 L348.0 397.7 L360.0 403.2 L372.0 409.1 L384.0 415.3 L396.0 421.3 L408.0 426.7 L420.0 431.4 L432.0 434.9 L444.0 437.1 L456.0 437.8 L468.0 437.1 L480.0 435.0 L492.0 431.7 L504.0 427.5 L516.0 422.6 L528.0 417.3 L540.0 412.1 L552.0 407.1 L564.0 402.7 L576.0 399.1 L588.0 396.2 L600.0 394.2 L612.0 392.9 L624.0 392.3 L636.0 392.0 L648.0 391.9 L660.0 391.7 L672.0 391.2 L684.0 390.3 L696.0 388.8 L708.0 386.7 L720.0 384.0 L732.0 380.9 L744.0 377.6 L756.0 374.3 L768.0 371.4 L780.0 369.1 L792.0 367.7 L804.0 367.4 L816.0 368.4 L828.0 370.7 L840.0 374.4 L852.0 379.2 L864.0 385.0 L876.0 391.5 L888.0 398.3 L900.0 405.1 L912.0 411.6 L924.0 417.3 L936.0 422.1 L948.0 425.7 L960.0 428.0 L972.0 429.2 L984.0 429.1 L996.0 428.0 L1008.0 426.2 L1020.0 423.9 L1032.0 421.4 L1044.0 418.9 L1056.0 416.7 L1068.0 415.0 L1080.0 413.8 L1092.0 413.1 L1104.0 413.0 L1116.0 413.1 L1128.0 413.4 L1140.0 413.6 L1152.0 413.4 L1164.0 412.7 L1176.0 411.1 L1188.0 408.7 L1200.0 405.3" fill="none" stroke="#82DCE3" stroke-width="1" stroke-opacity="0.16" stroke-linecap="round"></path>
<path d="M0.0 401.2 L12.0 393.5 L24.0 388.5 L36.0 386.4 L48.0 386.9 L60.0 389.6 L72.0 394.0 L84.0 399.3 L96.0 405.0 L108.0 410.2 L120.0 414.6 L132.0 417.8 L144.0 419.8 L156.0 420.7 L168.0 420.8 L180.0 420.6 L192.0 420.7 L204.0 421.7 L216.0 424.2 L228.0 428.3 L240.0 434.5 L252.0 442.5 L264.0 452.0 L276.0 462.6 L288.0 473.6 L300.0 484.0 L312.0 493.2 L324.0 500.4 L336.0 504.8 L348.0 506.3 L360.0 504.5 L372.0 499.7 L384.0 492.2 L396.0 482.6 L408.0 471.7 L420.0 460.2 L432.0 449.1 L444.0 438.9 L456.0 430.4 L468.0 423.9 L480.0 419.4 L492.0 416.8 L504.0 415.8 L516.0 415.9 L528.0 416.5 L540.0 417.0 L552.0 416.8 L564.0 415.7 L576.0 413.4 L588.0 409.9 L600.0 405.5 L612.0 400.7 L624.0 396.0 L636.0 392.2 L648.0 389.9 L660.0 389.6 L672.0 392.0 L684.0 397.0 L696.0 404.7 L708.0 414.8 L720.0 426.8 L732.0 439.8 L744.0 453.2 L756.0 465.9 L768.0 477.2 L780.0 486.3 L792.0 492.8 L804.0 496.4 L816.0 497.1 L828.0 495.2 L840.0 491.1 L852.0 485.4 L864.0 479.0 L876.0 472.5 L888.0 466.5 L900.0 461.5 L912.0 457.7 L924.0 455.3 L936.0 454.1 L948.0 453.6 L960.0 453.3 L972.0 452.8 L984.0 451.4 L996.0 448.6 L1008.0 444.1 L1020.0 437.7 L1032.0 429.7 L1044.0 420.4 L1056.0 410.3 L1068.0 400.2 L1080.0 390.8 L1092.0 382.9 L1104.0 377.3 L1116.0 374.5 L1128.0 374.8 L1140.0 378.3 L1152.0 384.7 L1164.0 393.6 L1176.0 404.4 L1188.0 416.2 L1200.0 428.2" fill="none" stroke="#82DCE3" stroke-width="1" stroke-opacity="0.16" stroke-linecap="round"></path>
<path d="M0.0 446.1 L12.0 448.2 L24.0 450.7 L36.0 453.5 L48.0 456.5 L60.0 459.5 L72.0 462.5 L84.0 465.2 L96.0 467.6 L108.0 469.6 L120.0 471.2 L132.0 472.5 L144.0 473.4 L156.0 473.9 L168.0 474.3 L180.0 474.5 L192.0 474.6 L204.0 474.9 L216.0 475.4 L228.0 476.1 L240.0 477.3 L252.0 478.9 L264.0 481.0 L276.0 483.5 L288.0 486.6 L300.0 490.0 L312.0 493.7 L324.0 497.7 L336.0 501.7 L348.0 505.7 L360.0 509.4 L372.0 512.7 L384.0 515.6 L396.0 517.8 L408.0 519.2 L420.0 519.7 L432.0 519.4 L444.0 518.2 L456.0 516.1 L468.0 513.3 L480.0 509.6 L492.0 505.4 L504.0 500.7 L516.0 495.7 L528.0 490.5 L540.0 485.4 L552.0 480.4 L564.0 475.8 L576.0 471.6 L588.0 468.0 L600.0 465.0 L612.0 462.6 L624.0 460.9 L636.0 459.8 L648.0 459.3 L660.0 459.3 L672.0 459.6 L684.0 460.2 L696.0 460.9 L708.0 461.7 L720.0 462.3 L732.0 462.8 L744.0 463.0 L756.0 462.9 L768.0 462.5 L780.0 461.7 L792.0 460.7 L804.0 459.5 L816.0 458.1 L828.0 456.8 L840.0 455.6 L852.0 454.6 L864.0 453.9 L876.0 453.8 L888.0 454.2 L900.0 455.3 L912.0 457.1 L924.0 459.6 L936.0 462.8 L948.0 466.7 L960.0 471.1 L972.0 476.1 L984.0 481.3 L996.0 486.7 L1008.0 492.1 L1020.0 497.4 L1032.0 502.3 L1044.0 506.7 L1056.0 510.5 L1068.0 513.6 L1080.0 515.9 L1092.0 517.3 L1104.0 517.9 L1116.0 517.5 L1128.0 516.4 L1140.0 514.6 L1152.0 512.2 L1164.0 509.3 L1176.0 506.2 L1188.0 502.8 L1200.0 499.4" fill="none" stroke="#82DCE3" stroke-width="1.8" stroke-opacity="0.3" stroke-linecap="round"></path>
<path d="M0.0 512.2 L12.0 514.5 L24.0 516.4 L36.0 518.0 L48.0 519.1 L60.0 519.9 L72.0 520.4 L84.0 520.7 L96.0 520.9 L108.0 521.1 L120.0 521.4 L132.0 521.9 L144.0 522.7 L156.0 523.9 L168.0 525.4 L180.0 527.3 L192.0 529.5 L204.0 531.9 L216.0 534.4 L228.0 537.0 L240.0 539.3 L252.0 541.4 L264.0 543.0 L276.0 544.0 L288.0 544.4 L300.0 544.0 L312.0 542.9 L324.0 541.1 L336.0 538.6 L348.0 535.5 L360.0 531.9 L372.0 528.1 L384.0 524.0 L396.0 520.0 L408.0 516.2 L420.0 512.7 L432.0 509.7 L444.0 507.2 L456.0 505.3 L468.0 504.0 L480.0 503.3 L492.0 503.2 L504.0 503.5 L516.0 504.2 L528.0 505.1 L540.0 506.1 L552.0 507.1 L564.0 507.9 L576.0 508.6 L588.0 508.9 L600.0 509.0 L612.0 508.9 L624.0 508.5 L636.0 508.0 L648.0 507.4 L660.0 506.9 L672.0 506.6 L684.0 506.6 L696.0 507.1 L708.0 508.0 L720.0 509.4 L732.0 511.5 L744.0 514.0 L756.0 517.1 L768.0 520.5 L780.0 524.2 L792.0 528.1 L804.0 531.9 L816.0 535.5 L828.0 538.7 L840.0 541.4 L852.0 543.5 L864.0 544.9 L876.0 545.5 L888.0 545.4 L900.0 544.5 L912.0 542.9 L924.0 540.8 L936.0 538.3 L948.0 535.4 L960.0 532.5 L972.0 529.5 L984.0 526.7 L996.0 524.1 L1008.0 521.9 L1020.0 520.1 L1032.0 518.8 L1044.0 517.8 L1056.0 517.2 L1068.0 516.8 L1080.0 516.6 L1092.0 516.5 L1104.0 516.3 L1116.0 515.9 L1128.0 515.4 L1140.0 514.5 L1152.0 513.2 L1164.0 511.7 L1176.0 509.8 L1188.0 507.7 L1200.0 505.4" fill="none" stroke="#82DCE3" stroke-width="1" stroke-opacity="0.16" stroke-linecap="round"></path>
<path d="M0.0 566.4 L12.0 566.9 L24.0 567.1 L36.0 567.2 L48.0 567.5 L60.0 568.0 L72.0 569.1 L84.0 570.6 L96.0 572.8 L108.0 575.5 L120.0 578.5 L132.0 581.7 L144.0 584.7 L156.0 587.4 L168.0 589.5 L180.0 590.6 L192.0 590.7 L204.0 589.5 L216.0 587.1 L228.0 583.4 L240.0 578.7 L252.0 573.2 L264.0 567.0 L276.0 560.6 L288.0 554.3 L300.0 548.3 L312.0 543.1 L324.0 538.9 L336.0 535.7 L348.0 533.7 L360.0 532.9 L372.0 533.1 L384.0 534.3 L396.0 536.0 L408.0 538.2 L420.0 540.5 L432.0 542.7 L444.0 544.7 L456.0 546.1 L468.0 547.1 L480.0 547.5 L492.0 547.6 L504.0 547.3 L516.0 547.0 L528.0 546.9 L540.0 547.1 L552.0 548.0 L564.0 549.6 L576.0 552.0 L588.0 555.4 L600.0 559.6 L612.0 564.4 L624.0 569.8 L636.0 575.3 L648.0 580.7 L660.0 585.6 L672.0 589.8 L684.0 593.0 L696.0 595.0 L708.0 595.7 L720.0 594.9 L732.0 592.9 L744.0 589.7 L756.0 585.5 L768.0 580.7 L780.0 575.5 L792.0 570.3 L804.0 565.3 L816.0 560.8 L828.0 557.0 L840.0 554.1 L852.0 551.9 L864.0 550.6 L876.0 549.9 L888.0 549.6 L900.0 549.7 L912.0 549.7 L924.0 549.6 L936.0 549.1 L948.0 548.2 L960.0 546.7 L972.0 544.6 L984.0 542.2 L996.0 539.5 L1008.0 536.8 L1020.0 534.4 L1032.0 532.5 L1044.0 531.3 L1056.0 531.1 L1068.0 532.1 L1080.0 534.2 L1092.0 537.6 L1104.0 542.1 L1116.0 547.5 L1128.0 553.5 L1140.0 559.9 L1152.0 566.3 L1164.0 572.4 L1176.0 577.8 L1188.0 582.4 L1200.0 585.8" fill="none" stroke="#82DCE3" stroke-width="1" stroke-opacity="0.16" stroke-linecap="round"></path>
<path d="M0.0 614.3 L12.0 615.0 L24.0 616.4 L36.0 618.5 L48.0 621.2 L60.0 624.4 L72.0 627.5 L84.0 630.1 L96.0 631.9 L108.0 632.4 L120.0 631.4 L132.0 628.6 L144.0 624.2 L156.0 618.1 L168.0 610.7 L180.0 602.5 L192.0 594.0 L204.0 585.8 L216.0 578.4 L228.0 572.2 L240.0 567.6 L252.0 564.8 L264.0 563.9 L276.0 564.7 L288.0 567.0 L300.0 570.3 L312.0 574.2 L324.0 578.3 L336.0 582.2 L348.0 585.4 L360.0 587.9 L372.0 589.6 L384.0 590.5 L396.0 590.9 L408.0 591.0 L420.0 591.2 L432.0 592.0 L444.0 593.6 L456.0 596.2 L468.0 600.0 L480.0 604.8 L492.0 610.7 L504.0 617.0 L516.0 623.6 L528.0 629.8 L540.0 635.1 L552.0 639.1 L564.0 641.4 L576.0 641.7 L588.0 640.1 L600.0 636.5 L612.0 631.2 L624.0 624.6 L636.0 617.3 L648.0 609.7 L660.0 602.4 L672.0 595.8 L684.0 590.3 L696.0 586.1 L708.0 583.3 L720.0 581.8 L732.0 581.4 L744.0 581.7 L756.0 582.4 L768.0 583.1 L780.0 583.5 L792.0 583.2 L804.0 582.2 L816.0 580.5 L828.0 578.3 L840.0 575.7 L852.0 573.3 L864.0 571.3 L876.0 570.3 L888.0 570.6 L900.0 572.4 L912.0 575.9 L924.0 581.1 L936.0 587.7 L948.0 595.3 L960.0 603.6 L972.0 612.0 L984.0 619.9 L996.0 626.8 L1008.0 632.3 L1020.0 636.0 L1032.0 637.8 L1044.0 637.7 L1056.0 636.0 L1068.0 632.8 L1080.0 628.7 L1092.0 624.1 L1104.0 619.4 L1116.0 615.1 L1128.0 611.5 L1140.0 608.7 L1152.0 606.9 L1164.0 605.8 L1176.0 605.3 L1188.0 605.0 L1200.0 604.5" fill="none" stroke="#82DCE3" stroke-width="1" stroke-opacity="0.16" stroke-linecap="round"></path>
</svg>